<svg id="noun_timer_2904924" xmlns="http://www.w3.org/2000/svg" width="75.178" height="66" viewBox="0 0 75.178 66">
  <defs>
    <style>
      .cls-1 {
        fill: #009cde;
      }
    </style>
  </defs>
  <path id="Path_9003" data-name="Path 9003" class="cls-1" d="M119.477,21.089a1.93,1.93,0,0,1-2.734.391,1.91,1.91,0,0,1-.391-2.734A28.49,28.49,0,0,1,137.246,7.811V3.905h-3.124a1.845,1.845,0,0,1-1.953-1.953A1.845,1.845,0,0,1,134.122,0h10.154a1.845,1.845,0,0,1,1.953,1.953,1.845,1.845,0,0,1-1.953,1.953h-3.124V7.811A29.122,29.122,0,0,1,139.2,66a29.869,29.869,0,0,1-22.846-10.935,2.018,2.018,0,0,1,3.124-2.538,25.287,25.287,0,1,0,0-31.438Z" transform="translate(-93.311)"/>
  <path id="Path_9004" data-name="Path 9004" class="cls-1" d="M225,102.953A1.957,1.957,0,0,1,226.953,101a2.1,2.1,0,0,1,1.953,1.953v13.278h8.787a1.957,1.957,0,0,1,1.953,1.953,2.1,2.1,0,0,1-1.953,1.953h-10.74A2.1,2.1,0,0,1,225,118.183Z" transform="translate(-181.065 -81.278)"/>
  <path id="Path_9005" data-name="Path 9005" class="cls-1" d="M22.953,138.905A1.845,1.845,0,0,1,21,136.953,1.957,1.957,0,0,1,22.953,135H37.207a2.1,2.1,0,0,1,1.953,1.953,1.957,1.957,0,0,1-1.953,1.953Z" transform="translate(-16.899 -108.639)"/>
  <path id="Path_9006" data-name="Path 9006" class="cls-1" d="M1.953,182.905A1.957,1.957,0,0,1,0,180.953,1.845,1.845,0,0,1,1.953,179H20.308a1.957,1.957,0,0,1,1.953,1.953,2.1,2.1,0,0,1-1.953,1.953Z" transform="translate(0 -144.047)"/>
  <path id="Path_9007" data-name="Path 9007" class="cls-1" d="M22.953,225.905A1.845,1.845,0,0,1,21,223.953,1.957,1.957,0,0,1,22.953,222H37.207a2.1,2.1,0,0,1,1.953,1.953,1.957,1.957,0,0,1-1.953,1.953Z" transform="translate(-16.899 -178.651)"/>
</svg>
