<svg xmlns="http://www.w3.org/2000/svg" width="28.976" height="26.947" viewBox="0 0 28.976 26.947">
  <g id="noun_message_965435" transform="translate(-0.54 -15.45)">
    <g id="noun_message_738679" transform="translate(-4.46 7.299)">
      <g id="Group_3352" data-name="Group 3352" transform="translate(5 8.151)">
        <path id="Path_12138" data-name="Path 12138" d="M24.317,8.151H14.659A9.674,9.674,0,0,0,5,17.819v2.552a9.65,9.65,0,0,0,6.575,9.16c-.49.847-1.158,2.167-2.118,4.229A.941.941,0,0,0,10.7,35.013l10.875-4.975h2.741a9.674,9.674,0,0,0,9.659-9.668V17.818A9.674,9.674,0,0,0,24.317,8.151Zm7.776,12.22a7.79,7.79,0,0,1-7.776,7.785H21.371a.938.938,0,0,0-.392.086L12.3,32.212a22.214,22.214,0,0,1,1.351-2.442.942.942,0,0,0-.325-1.733,7.772,7.772,0,0,1-6.442-7.667V17.819a7.79,7.79,0,0,1,7.776-7.785h9.659a7.79,7.79,0,0,1,7.776,7.785v2.552Z" transform="translate(-5 -8.151)"/>
        <circle id="Ellipse_3183" data-name="Ellipse 3183" cx="2.082" cy="2.082" r="2.082" transform="translate(5.108 9.077)"/>
        <circle id="Ellipse_3184" data-name="Ellipse 3184" cx="2.082" cy="2.082" r="2.082" transform="translate(19.704 9.077)"/>
        <circle id="Ellipse_3185" data-name="Ellipse 3185" cx="2.082" cy="2.082" r="2.082" transform="translate(12.406 9.077)"/>
      </g>
    </g>
  </g>
</svg>
