<svg xmlns="http://www.w3.org/2000/svg" width="60" height="59.997" viewBox="0 0 60 59.997">
  <defs>
    <style>
      .cls-1 {
        fill: #86c306;
      }
    </style>
  </defs>
  <g id="noun_tick_453824" transform="translate(-0.098)">
    <g id="Group_3301" data-name="Group 3301" transform="translate(0.098)">
      <path id="Path_12109" data-name="Path 12109" class="cls-1" d="M30.1,60a30,30,0,1,1,30-30A30.034,30.034,0,0,1,30.1,60Zm0-55.384A25.384,25.384,0,1,0,55.482,30,25.411,25.411,0,0,0,30.1,4.614Z" transform="translate(-0.098)"/>
    </g>
    <g id="Group_3302" data-name="Group 3302" transform="translate(16.977 20.354)">
      <path id="Path_12110" data-name="Path 12110" class="cls-1" d="M15.948,27.327a2.263,2.263,0,0,1-1.6-.665L7.393,19.709A2.269,2.269,0,0,1,10.6,16.5l5.347,5.347L29.1,8.7a2.27,2.27,0,0,1,3.211,3.211L17.553,26.665A2.271,2.271,0,0,1,15.948,27.327Z" transform="translate(-6.728 -8.035)"/>
    </g>
  </g>
</svg>
