<svg xmlns="http://www.w3.org/2000/svg" width="94.596" height="100.148" viewBox="0 0 94.596 100.148">
  <defs>
    <style>
      .cls-1 {
        fill: #009cde;
      }
    </style>
  </defs>
  <path id="noun_connection_463091" class="cls-1" d="M94.6,25.782a9.12,9.12,0,0,0-17.961-2.245H58.215A9.108,9.108,0,0,0,41.93,20.53L18.184,10.193a9.336,9.336,0,0,0,.068-1.067A9.136,9.136,0,1,0,17.13,13.5L40.5,23.7A9.026,9.026,0,0,0,41.8,30.848L23.477,49.862a9.12,9.12,0,1,0-4.635,16.972,9.239,9.239,0,0,0,1.663-.158L25.52,83.049A9.116,9.116,0,1,0,29.947,81.9a8.9,8.9,0,0,0-1.127.078L23.736,65.4a9.118,9.118,0,0,0,4.2-7.067L38.9,56.917a9.109,9.109,0,0,0,16.846,4.2l14.5,12.222a9.122,9.122,0,1,0,10.527-5.032l5.386-33.434A9.131,9.131,0,0,0,94.6,25.782Zm-85.47-11A5.655,5.655,0,1,1,14.78,9.125,5.662,5.662,0,0,1,9.125,14.78ZM35.6,91.023a5.655,5.655,0,1,1-5.655-5.655A5.662,5.662,0,0,1,35.6,91.023Zm49.869-70.9a5.655,5.655,0,1,1-5.655,5.655A5.662,5.662,0,0,1,85.47,20.127ZM58.3,27.7H76.552a9.154,9.154,0,0,0,6.156,6.777L77.292,68.111a9.024,9.024,0,0,0-1.889.469L55.585,32.455A9.115,9.115,0,0,0,58.3,27.7ZM49.38,20.127a5.655,5.655,0,1,1-5.655,5.655A5.662,5.662,0,0,1,49.38,20.127ZM18.842,63.364A5.655,5.655,0,1,1,24.5,57.708,5.661,5.661,0,0,1,18.842,63.364Zm29.15-1.388a5.655,5.655,0,1,1,5.655-5.655A5.661,5.661,0,0,1,47.992,61.975Zm0-14.78a9.133,9.133,0,0,0-8.621,6.162l-11.854,1.53a9.1,9.1,0,0,0-1.441-2.719L44.238,33.316a9.062,9.062,0,0,0,8.4.981L72.431,70.375c-.05.046-.1.089-.15.137L57.012,57.646a8.88,8.88,0,0,0,.108-1.326A9.14,9.14,0,0,0,47.992,47.2ZM84.185,77.142a5.655,5.655,0,1,1-5.655-5.655A5.662,5.662,0,0,1,84.185,77.142Z"/>
</svg>
