<svg xmlns="http://www.w3.org/2000/svg" width="139.494" height="52.63" viewBox="0 0 139.494 52.63">
  <defs>
    <style>
      .cls-1 {
        fill: #009cde;
      }
    </style>
  </defs>
  <g id="Your_Icons" data-name="Your Icons" transform="translate(-3.385 -31.64)">
    <path id="Path_12148" data-name="Path 12148" class="cls-1" d="M21.819,55.246A11.8,11.8,0,1,0,10,43.443,11.8,11.8,0,0,0,21.819,55.246Zm0-20.479a8.676,8.676,0,1,1-8.692,8.676A8.676,8.676,0,0,1,21.819,34.767Z" transform="translate(3.726 0)"/>
    <path id="Path_12149" data-name="Path 12149" class="cls-1" d="M25.545,47.85c-13.116,0-19.01,8.192-21.652,15.039a7.379,7.379,0,0,0,6.894,10.068H40.3A7.394,7.394,0,0,0,47.2,62.889C44.57,56.042,38.739,47.85,25.545,47.85ZM43.82,67.986A4.174,4.174,0,0,1,40.3,69.83H10.787a4.252,4.252,0,0,1-3.971-5.816c2.282-5.941,7.394-13.038,18.76-13.038s16.446,7.1,18.76,13.038a4.221,4.221,0,0,1-.516,3.971Z" transform="translate(0 9.131)"/>
    <path id="Path_12150" data-name="Path 12150" class="cls-1" d="M82.7,55.246a11.8,11.8,0,1,0-11.819-11.8A11.8,11.8,0,0,0,82.7,55.246Zm0-20.479a8.676,8.676,0,1,1-8.692,8.676A8.676,8.676,0,0,1,82.7,34.767Z" transform="translate(38.021 0)"/>
    <path id="Path_12151" data-name="Path 12151" class="cls-1" d="M108.08,62.889c-2.642-6.847-8.536-15.039-21.652-15.039S67.4,56.042,64.76,62.889a7.394,7.394,0,0,0,6.91,10.068h29.515a7.379,7.379,0,0,0,6.894-10.068Zm-3.377,5.1a4.221,4.221,0,0,1-3.517,1.845H71.67a4.174,4.174,0,0,1-3.5-1.845,4.221,4.221,0,0,1-.469-3.971c2.3-5.941,7.395-13.038,18.76-13.038s16.446,7.1,18.76,13.038A4.221,4.221,0,0,1,104.7,67.986Z" transform="translate(34.292 9.131)"/>
    <path id="Path_12152" data-name="Path 12152" class="cls-1" d="M73.681,54.444H40.07l9.38-9.38a1.564,1.564,0,1,0-2.2-2.22L35.161,54.913a1.563,1.563,0,0,0,1.11,2.658h37.41a1.563,1.563,0,0,0,0-3.127Z" transform="translate(17.648 6.055)"/>
    <path id="Path_12153" data-name="Path 12153" class="cls-1" d="M73.672,55.6H36.293a1.563,1.563,0,0,0,0,3.127H69.9l-9.38,9.38a1.564,1.564,0,1,0,2.22,2.2L74.767,58.289a1.563,1.563,0,0,0-1.11-2.673Z" transform="translate(17.657 13.497)"/>
  </g>
</svg>
