<svg xmlns="http://www.w3.org/2000/svg" width="22.244" height="21.351" viewBox="0 0 22.244 21.351">
  <defs>
    <style>
      .cls-1 {
        fill: #86c306;
      }
    </style>
  </defs>
  <g id="noun_Download_2413679" transform="translate(24.626 23.567) rotate(180)">
    <path id="Path_12122" data-name="Path 12122" class="cls-1" d="M3.912,18.657,9.274,23.08h0a.853.853,0,0,0,.161.114h0c.013.008.034.017.047.025s.013.008.017.008a.15.15,0,0,0,.038.017c0,.008.013.008.021.013a.093.093,0,0,1,.021.013.15.15,0,0,1,.038.017h0a1.269,1.269,0,0,0,.5.093,1.319,1.319,0,0,0,.5-.093h0a.292.292,0,0,1,.042-.017c0-.008.017-.008.021-.013a.056.056,0,0,0,.021-.013.127.127,0,0,0,.042-.017.009.009,0,0,0,.008-.008l.051-.025h0c.059-.034.11-.076.165-.114h0l5.362-4.422a1.326,1.326,0,0,0-1.689-2.044l-3.191,2.641V3.566a1.325,1.325,0,0,0-2.649,0V19.254L5.6,16.613a1.324,1.324,0,0,0-1.684,2.044Z" transform="translate(3.392 0.081)"/>
    <g id="Group_3317" data-name="Group 3317" transform="translate(2.382 2.216)">
      <g id="Group_3315" data-name="Group 3315">
        <path id="Path_12123" data-name="Path 12123" class="cls-1" d="M2.382,22.179V3.608a1.392,1.392,0,0,1,2.785,0v18.57a1.392,1.392,0,0,1-2.785,0Z" transform="translate(-2.382 -2.216)"/>
      </g>
      <g id="Group_3316" data-name="Group 3316" transform="translate(19.459)">
        <path id="Path_12124" data-name="Path 12124" class="cls-1" d="M6.98,22.179V3.608a1.392,1.392,0,1,1,2.785,0v18.57a1.392,1.392,0,0,1-2.785,0Z" transform="translate(-6.98 -2.216)"/>
      </g>
    </g>
  </g>
</svg>
